<?xml version="1.0" encoding="utf-8"?>
<!-- Generator: Adobe Illustrator 25.2.1, SVG Export Plug-In . SVG Version: 6.00 Build 0)  -->
<svg version="1.1" id="Layer_1" xmlns="http://www.w3.org/2000/svg" xmlns:xlink="http://www.w3.org/1999/xlink" x="0px" y="0px"
	 viewBox="0 0 131 125" style="enable-background:new 0 0 131 125;" xml:space="preserve">
<style type="text/css">
	.st0{fill:#FFFFFF;}
	.st1{fill:#FCB322;}
	.st2{fill:#6BCA5E;}
</style>
<path class="st0" d="M47.4,81c-0.6,0-1-0.4-1-1v-4.2c0-0.6,0.4-1,1-1s1,0.4,1,1V80C48.4,80.6,48,81,47.4,81z"/>
<path class="st0" d="M51.4,81c-0.6,0-1-0.4-1-1v-4.2c0-0.6,0.4-1,1-1s1,0.4,1,1V80C52.4,80.6,52,81,51.4,81z"/>
<path class="st0" d="M25.3,81c-0.6,0-1-0.4-1-1v-4.2c0-0.6,0.4-1,1-1s1,0.4,1,1V80C26.3,80.6,25.8,81,25.3,81z"/>
<path class="st0" d="M29.3,81c-0.6,0-1-0.4-1-1v-4.2c0-0.6,0.4-1,1-1s1,0.4,1,1V80C30.3,80.6,29.8,81,29.3,81z"/>
<path class="st0" d="M17.3,81c-0.6,0-1-0.4-1-1v-4.2c0-0.6,0.4-1,1-1s1,0.4,1,1V80C18.3,80.6,17.8,81,17.3,81z"/>
<path class="st0" d="M21.3,81c-0.6,0-1-0.4-1-1v-4.2c0-0.6,0.4-1,1-1s1,0.4,1,1V80C22.3,80.6,21.8,81,21.3,81z"/>
<path class="st0" d="M93.5,81c-0.6,0-1-0.4-1-1v-4.2c0-0.6,0.4-1,1-1s1,0.4,1,1V80C94.5,80.6,94.1,81,93.5,81z"/>
<path class="st0" d="M97.5,81c-0.6,0-1-0.4-1-1v-4.2c0-0.6,0.4-1,1-1s1,0.4,1,1V80C98.5,80.6,98.1,81,97.5,81z"/>
<path class="st0" d="M55.4,81c-0.6,0-1-0.4-1-1v-4.2c0-0.6,0.4-1,1-1s1,0.4,1,1V80C56.4,80.6,56,81,55.4,81z"/>
<path class="st0" d="M59.4,81c-0.6,0-1-0.4-1-1v-4.2c0-0.6,0.4-1,1-1s1,0.4,1,1V80C60.4,80.6,60,81,59.4,81z"/>
<path class="st0" d="M63.4,81c-0.6,0-1-0.4-1-1v-4.2c0-0.6,0.4-1,1-1c0.6,0,1,0.4,1,1V80C64.4,80.6,64,81,63.4,81z"/>
<path class="st0" d="M67.4,81c-0.6,0-1-0.4-1-1v-4.2c0-0.6,0.4-1,1-1s1,0.4,1,1V80C68.4,80.6,68,81,67.4,81z"/>
<path class="st0" d="M71.4,81c-0.6,0-1-0.4-1-1v-4.2c0-0.6,0.4-1,1-1s1,0.4,1,1V80C72.4,80.6,72,81,71.4,81z"/>
<path class="st0" d="M75.4,81c-0.6,0-1-0.4-1-1v-4.2c0-0.6,0.4-1,1-1s1,0.4,1,1V80C76.4,80.6,76,81,75.4,81z"/>
<path class="st1" d="M79.5,16.8c-10.6,8.1-20,15.2-32.6,10.7c-1.2,1.7-1.8,4.1-2.1,6.7c3.4,1.2,6.7,1.8,9.8,1.8
	c11.4,0,20.7-7.1,29.2-13.6c11.5-8.8,21.6-16.4,36-10.3c1.8-0.7,3.7-2.3,5.4-5.2C105.6-3.1,91.8,7.5,79.5,16.8z"/>
<path class="st0" d="M85.5,21v24.1c-1.8-0.3-6.3-1.8-10.7-8.3c-0.5-0.9-1-1.6-1.3-2.2c-0.3-0.5-0.5-0.8-0.6-1l0,0
	c-0.5-0.9-1-1.8-1.6-2.6c-1.5,0.8-3,1.6-4.5,2.3c0.6,0.8,1.1,1.8,1.6,2.7l0,0l0,0l0,0c0.7,1.3,1.4,2.4,2.1,3.5
	c3,5.2,7.9,15,7.9,28.4V80c0,1.4,1.1,2.5,2.5,2.5s2.5-1.1,2.5-2.5V51.8c0-0.6,0.5-1,1-1s1,0.5,1,1v0.7v40.3c0,1.4,1.1,2.5,2.5,2.5
	s2.5-1.1,2.5-2.5V52.5V17.4C88.9,18.5,87.2,19.8,85.5,21z"/>
<path class="st1" d="M42.3,25.4c-0.5-0.3-0.9-0.5-1.4-0.8c-7.4-4.5-15.9-9.6-29-0.2c-1.6,1.1-1.9,3.3-0.8,4.9s3.3,1.9,4.9,0.8
	c8.9-6.4,13.4-4.3,21.3,0.5c0.9,0.6,1.8,1,2.7,1.5C40.4,29.7,41.1,27.4,42.3,25.4z"/>
<path class="st0" d="M46.6,19.8c-2.9,0.7-5.5,2-7.7,3.6c0.7,0.4,1.3,0.8,2,1.2c0.5,0.3,0.9,0.5,1.4,0.8c-1.2,2-1.9,4.3-2.3,6.7
	c-0.9-0.5-1.8-1-2.7-1.5c-1.2-0.7-2.2-1.3-3.3-1.9c-1.1,1.9-1.7,3.9-1.7,5.9c0,0.1,0,0.1,0,0.2c0,0.1,0,0.3,0,0.4V80
	c0,1.4,1.1,2.5,2.5,2.5s2.5-1.1,2.5-2.5V35.2c0-0.6,0.5-1,1-1s1,0.5,1,1V80c0,1.4,1.1,2.5,2.5,2.5s2.6-1.1,2.6-2.5V40.8
	c0-5.3,0.4-11.7,3.6-14.6c1.6-1.4,3.9-2,7-1.7c2.2,0.4,4.5,1.4,6.8,3.2c1.7-0.6,3.4-1.3,5-2.2C61.2,20.1,54,18,46.6,19.8z"/>
<g>
	<path class="st0" d="M90.2,6.5c2.3-1.5,4.7-1.9,7.3-1.1c2-0.8,4.1-1.5,6.2-1.9c-0.9-0.9-1.7-1.6-2.6-2c-4.7-2.2-9.4-1.9-13.6,0.8
		c-1.2,0.8-1.5,2.3-0.7,3.5C87.5,6.9,89.1,7.3,90.2,6.5z"/>
	<path class="st0" d="M129.1,9l-3.9-2.1l0,0l0,0l0,0c-0.2,0.3-0.4,0.6-0.6,0.9c0,0.1-0.1,0.1-0.1,0.2c-0.2,0.3-0.4,0.5-0.6,0.8
		c0,0,0,0,0,0.1c-0.2,0.3-0.4,0.5-0.6,0.7l-0.1,0.1c-0.2,0.2-0.4,0.4-0.6,0.6c0,0,0,0-0.1,0.1c-0.2,0.2-0.4,0.4-0.7,0.5
		c0,0,0,0-0.1,0c-0.2,0.2-0.4,0.3-0.6,0.4l0,0c-0.5,0.3-0.9,0.5-1.3,0.7l0,0l0,0c-3.1,1.3-5.9,0.1-6.9-0.4c0,0,0,0-0.1,0
		c0,0,0,0-0.1,0c-1-0.4-1.9-1-2.8-1.8c-2.2,0-4.3,0.2-6.4,0.8c2,2.1,4.3,4.3,7.1,5.5l0,0c0,0,0,0,0.1,0c0,0,0,0,0.1,0l0,0
		c1.8,0.8,3.9,1.4,6.1,1.4c3.2,0,6.7-1.2,9.6-4.3c1.2,0.7,2.8,0.3,3.5-0.9C130.7,11.2,130.3,9.7,129.1,9z"/>
</g>
<path class="st0" d="M1,106.9c-0.6-0.4-1-1.1-1-1.9c0-1.3,1.1-2.4,2.4-2.4c0.7,0,1.1,0.2,1.5,0.5c1.8,1.3,3.7,2.1,6,2.1
	c2.1,0,3.4-0.8,3.4-2.2v-0.1c0-1.3-0.8-2-4.7-3c-4.7-1.2-7.8-2.5-7.8-7.2v-0.1c0-4.3,3.4-7.1,8.2-7.1c2.8,0,5.3,0.7,7.4,2.1
	c0.6,0.3,1.1,1,1.1,2c0,1.3-1.1,2.4-2.4,2.4c-0.5,0-0.9-0.1-1.3-0.4c-1.7-1-3.3-1.6-4.9-1.6c-2,0-3,0.9-3,2v0.1c0,1.5,1,2,5.1,3.1
	c4.8,1.2,7.4,2.9,7.4,7v0.1c0,4.7-3.6,7.3-8.6,7.3C6.7,109.7,3.6,108.8,1,106.9z"/>
<path class="st0" d="M18.5,106l8.2-18.5c0.6-1.3,1.6-2,3-2H30c1.4,0,2.4,0.8,3,2l8.2,18.5c0.2,0.4,0.3,0.7,0.3,1
	c0,1.4-1.1,2.5-2.4,2.5c-1.2,0-2-0.7-2.5-1.8L35,104H24.6l-1.6,3.9c-0.4,1-1.3,1.6-2.4,1.6c-1.3,0-2.4-1.1-2.4-2.4
	C18.2,106.7,18.4,106.4,18.5,106z M33.1,99.5l-3.2-7.7l-3.2,7.7H33.1z"/>
<path class="st0" d="M42.2,88.3c0-1.4,1.1-2.6,2.6-2.6h0.6c1.1,0,1.9,0.6,2.3,1.3L54,97.2L60.2,87c0.5-0.9,1.3-1.3,2.3-1.3h0.6
	c1.4,0,2.6,1.1,2.6,2.6v18.6c0,1.4-1.1,2.6-2.6,2.6c-1.4,0-2.5-1.2-2.5-2.6V95.2l-4.5,7c-0.5,0.8-1.2,1.3-2.1,1.3
	c-0.9,0-1.6-0.5-2.1-1.3l-4.5-6.9V107c0,1.4-1.1,2.5-2.5,2.5s-2.5-1.1-2.5-2.5V88.3z"/>
<path class="st0" d="M67,88.3c0-1.4,1.1-2.6,2.6-2.6h0.6c1.1,0,1.9,0.6,2.3,1.3l6.2,10.1L85,87c0.5-0.9,1.3-1.3,2.3-1.3h0.6
	c1.4,0,2.6,1.1,2.6,2.6v18.6c0,1.4-1.1,2.6-2.6,2.6c-1.4,0-2.5-1.2-2.5-2.6V95.2l-4.5,7c-0.5,0.8-1.2,1.3-2.1,1.3
	c-0.9,0-1.6-0.5-2.1-1.3l-4.5-6.9V107c0,1.4-1.1,2.5-2.5,2.5c-1.4,0-2.5-1.1-2.5-2.5V88.3z"/>
<path class="st0" d="M99.6,100.3L92.1,90c-0.4-0.5-0.6-1.1-0.6-1.8c0-1.4,1.1-2.5,2.6-2.5c1.2,0,1.9,0.6,2.5,1.6l5.7,8.2l5.8-8.3
	c0.6-0.9,1.4-1.5,2.5-1.5c1.6,0,2.5,1.1,2.5,2.5c0,0.7-0.3,1.3-0.7,1.8l-7.6,10.2v6.8c0,1.4-1.1,2.6-2.6,2.6s-2.6-1.1-2.6-2.6V100.3
	z"/>
<g>
	<path class="st2" d="M20.7,116.3h-2.2c-0.6,0-1.1-0.5-1.1-1.1s0.5-1.1,1.1-1.1h6.8c0.6,0,1.1,0.5,1.1,1.1s-0.5,1.1-1.1,1.1H23v7.3
		c0,0.6-0.5,1.2-1.2,1.2c-0.6,0-1.2-0.5-1.2-1.2v-7.3H20.7z"/>
	<path class="st2" d="M27.9,115.3c0-0.6,0.5-1.2,1.2-1.2h3.6c1.3,0,2.4,0.4,3.1,1.1c0.6,0.6,0.9,1.4,0.9,2.4l0,0
		c0,1.7-0.8,2.7-2.1,3.2l1.6,1.9c0.2,0.3,0.4,0.5,0.4,0.9c0,0.6-0.5,1.1-1.1,1.1c-0.5,0-0.9-0.3-1.1-0.6l-2.2-2.8h-1.8v2.3
		c0,0.6-0.5,1.2-1.2,1.2c-0.6,0-1.2-0.5-1.2-1.2v-8.3H27.9z M32.5,119.2c1.1,0,1.8-0.6,1.8-1.5l0,0c0-1-0.7-1.5-1.8-1.5h-2.3v3H32.5
		z"/>
	<path class="st2" d="M38.2,123.1l3.7-8.3c0.3-0.6,0.7-0.9,1.3-0.9h0.1c0.6,0,1.1,0.3,1.3,0.9l3.7,8.3c0.1,0.2,0.1,0.3,0.1,0.5
		c0,0.6-0.5,1.1-1.1,1.1c-0.5,0-0.9-0.3-1.1-0.8l-0.7-1.6h-4.6l-0.7,1.7c-0.2,0.5-0.6,0.7-1.1,0.7c-0.6,0-1.1-0.5-1.1-1.1
		C38,123.5,38.1,123.3,38.2,123.1z M44.7,120.2l-1.5-3.5l-1.5,3.5H44.7z"/>
	<path class="st2" d="M49.3,119.4L49.3,119.4c0-3,2.2-5.5,5.5-5.5c1.6,0,2.6,0.4,3.5,1.1c0.2,0.2,0.5,0.5,0.5,0.9
		c0,0.6-0.5,1.1-1.1,1.1c-0.3,0-0.5-0.1-0.7-0.2c-0.6-0.5-1.3-0.8-2.1-0.8c-1.8,0-3,1.5-3,3.3l0,0c0,1.8,1.2,3.3,3,3.3
		c1,0,1.6-0.3,2.3-0.8c0.2-0.2,0.4-0.3,0.7-0.3c0.6,0,1.1,0.5,1.1,1.1c0,0.4-0.2,0.6-0.4,0.8c-0.9,0.8-2.1,1.3-3.7,1.3
		C51.6,124.8,49.3,122.4,49.3,119.4z"/>
	<path class="st2" d="M60.9,115.2c0-0.6,0.5-1.2,1.2-1.2c0.6,0,1.2,0.5,1.2,1.2v3.5l4.3-4.2c0.3-0.3,0.6-0.5,1-0.5
		c0.6,0,1.1,0.5,1.1,1.1c0,0.4-0.2,0.6-0.4,0.9l-3,2.8l3.2,4c0.2,0.2,0.3,0.5,0.3,0.8c0,0.6-0.5,1.1-1.2,1.1c-0.5,0-0.7-0.2-1-0.6
		l-3-3.9l-1.3,1.2v2.1c0,0.6-0.5,1.2-1.2,1.2c-0.6,0-1.2-0.5-1.2-1.2C60.9,123.5,60.9,115.2,60.9,115.2z"/>
	<path class="st2" d="M71.6,123.5v-8.2c0-0.6,0.5-1.2,1.2-1.2h5.8c0.6,0,1,0.5,1,1c0,0.6-0.5,1-1,1h-4.7v2.1h4c0.6,0,1,0.5,1,1
		c0,0.6-0.5,1-1,1h-4v2.2h4.8c0.6,0,1,0.5,1,1c0,0.6-0.5,1-1,1h-5.9C72.1,124.6,71.6,124.1,71.6,123.5z"/>
	<path class="st2" d="M81.8,115.3c0-0.6,0.5-1.2,1.2-1.2h3.6c1.3,0,2.4,0.4,3.1,1.1c0.6,0.6,0.9,1.4,0.9,2.4l0,0
		c0,1.7-0.8,2.7-2.1,3.2l1.6,1.9c0.2,0.3,0.4,0.5,0.4,0.9c0,0.6-0.5,1.1-1.1,1.1c-0.5,0-0.9-0.3-1.1-0.6l-2.2-2.8h-1.8v2.3
		c0,0.6-0.5,1.2-1.2,1.2c-0.6,0-1.2-0.5-1.2-1.2v-8.3H81.8z M86.4,119.2c1.1,0,1.8-0.6,1.8-1.5l0,0c0-1-0.7-1.5-1.8-1.5h-2.3v3H86.4
		z"/>
</g>
</svg>
